{
  "asset": {
    "generator": "Khronos glTF Blender I/O v1.6.16",
    "version": "2.0"
  },
  "scene": 0,
  "scenes": [
    {
      "name": "Scene",
      "nodes": [
        0
      ]
    }
  ],
  "nodes": [
    {
      "mesh": 0,
      "name": "sphere_gltf"
    }
  ],
  "materials": [
    {
      "doubleSided": true,
      "name": "forest_leaves_03",
      "normalTexture": {
        "index": 0
      },
      "pbrMetallicRoughness": {
        "baseColorTexture": {
          "index": 1
        },
        "metallicFactor": 0,
        "metallicRoughnessTexture": {
          "index": 2
        }
      }
    }
  ],
  "meshes": [
    {
      "name": "Sphere.001",
      "primitives": [
        {
          "attributes": {
            "POSITION": 0,
            "NORMAL": 1,
            "TEXCOORD_0": 2
          },
          "indices": 3,
          "material": 0
        }
      ]
    }
  ],
  "textures": [
    {
      "sampler": 0,
      "source": 0
    },
    {
      "sampler": 0,
      "source": 1
    },
    {
      "sampler": 0,
      "source": 2
    }
  ],
  "images": [
    {
      "mimeType": "image/jpeg",
      "name": "forest_leaves_03_nor_gl_8k",
      "uri": "textures/forest_leaves_03_nor_gl_8k.jpg"
    },
    {
      "mimeType": "image/jpeg",
      "name": "forest_leaves_03_diff_8k",
      "uri": "textures/forest_leaves_03_diff_8k.jpg"
    },
    {
      "mimeType": "image/jpeg",
      "name": "forest_leaves_03_arm_8k",
      "uri": "textures/forest_leaves_03_arm_8k.jpg"
    }
  ],
  "accessors": [
    {
      "bufferView": 0,
      "componentType": 5126,
      "count": 53899,
      "max": [
        1.1481823921203613,
        1.1718380451202393,
        1.2047882080078125
      ],
      "min": [
        -1.1480623483657837,
        -1.1692143678665161,
        -1.204784631729126
      ],
      "type": "VEC3"
    },
    {
      "bufferView": 1,
      "componentType": 5126,
      "count": 53899,
      "type": "VEC3"
    },
    {
      "bufferView": 2,
      "componentType": 5126,
      "count": 53899,
      "type": "VEC2"
    },
    {
      "bufferView": 3,
      "componentType": 5123,
      "count": 322170,
      "type": "SCALAR"
    }
  ],
  "bufferViews": [
    {
      "buffer": 0,
      "byteLength": 646788,
      "byteOffset": 0
    },
    {
      "buffer": 0,
      "byteLength": 646788,
      "byteOffset": 646788
    },
    {
      "buffer": 0,
      "byteLength": 431192,
      "byteOffset": 1293576
    },
    {
      "buffer": 0,
      "byteLength": 644340,
      "byteOffset": 1724768
    }
  ],
  "samplers": [
    {
      "magFilter": 9729,
      "minFilter": 9987
    }
  ],
  "buffers": [
    {
      "byteLength": 2369108,
      "uri": "forest_leaves_03.bin"
    }
  ]
}